<?xml version="1.0" encoding="UTF-8" standalone="no"?>
<!DOCTYPE svg PUBLIC "-//W3C//DTD SVG 1.1//EN" "http://www.w3.org/Graphics/SVG/1.1/DTD/svg11.dtd">
<svg width="100%" height="100%" viewBox="0 0 542 531" version="1.1" xmlns="http://www.w3.org/2000/svg" xmlns:xlink="http://www.w3.org/1999/xlink" xml:space="preserve" xmlns:serif="http://www.serif.com/" style="fill-rule:evenodd;clip-rule:evenodd;stroke-linejoin:round;stroke-miterlimit:2;">
    <g transform="matrix(4.16667,0,0,4.16667,-1620.24,-1673.36)">
        <path d="M489.59,438.613C489.577,438.613 489.564,438.615 489.552,438.615C489.557,438.362 489.59,438.116 489.59,437.862C489.59,417.839 473.358,401.607 453.335,401.607C433.312,401.607 417.08,417.839 417.08,437.862C417.08,437.885 417.084,437.908 417.084,437.932C401.378,438.661 388.858,451.588 388.858,467.475C388.858,483.83 402.116,497.088 418.471,497.088L489.59,497.088C505.737,497.088 518.827,483.998 518.827,467.851C518.827,451.703 505.737,438.613 489.59,438.613Z" style="fill:rgb(65,192,237);fill-rule:nonzero;"/>
    </g>
    <g transform="matrix(4.16667,0,0,4.16667,-1620.24,-1673.36)">
        <path d="M411.173,480.844C409.786,480.844 408.661,479.72 408.661,478.332L408.661,461.617C408.661,460.229 409.786,459.105 411.173,459.105C412.559,459.105 413.684,460.229 413.684,461.617L413.684,478.332C413.684,479.72 412.559,480.844 411.173,480.844Z" style="fill:rgb(174,225,244);fill-rule:nonzero;"/>
    </g>
    <g transform="matrix(4.16667,0,0,4.16667,-1620.24,-1673.36)">
        <path d="M411.173,528.845C409.786,528.845 408.661,527.721 408.661,526.333L408.661,492.017C408.661,490.629 409.786,489.505 411.173,489.505C412.559,489.505 413.684,490.629 413.684,492.017L413.684,526.333C413.684,527.721 412.559,528.845 411.173,528.845Z" style="fill:rgb(174,225,244);fill-rule:nonzero;"/>
    </g>
    <g transform="matrix(4.16667,0,0,4.16667,-1620.24,-1673.36)">
        <path d="M432.507,471.343C431.121,471.343 429.996,470.22 429.996,468.832L429.996,444.459C429.996,443.071 431.121,441.948 432.507,441.948C433.894,441.948 435.019,443.071 435.019,444.459L435.019,468.832C435.019,470.22 433.894,471.343 432.507,471.343Z" style="fill:rgb(174,225,244);fill-rule:nonzero;"/>
    </g>
    <g transform="matrix(4.16667,0,0,4.16667,-1620.24,-1673.36)">
        <path d="M432.507,499.342C431.121,499.342 429.996,498.219 429.996,496.831L429.996,480.951C429.996,479.563 431.121,478.44 432.507,478.44C433.894,478.44 435.019,479.563 435.019,480.951L435.019,496.831C435.019,498.219 433.894,499.342 432.507,499.342Z" style="fill:rgb(174,225,244);fill-rule:nonzero;"/>
    </g>
    <g transform="matrix(4.16667,0,0,4.16667,-1620.24,-1673.36)">
        <path d="M432.507,528.845C431.121,528.845 429.996,527.721 429.996,526.333L429.996,513.637C429.996,512.249 431.121,511.126 432.507,511.126C433.894,511.126 435.019,512.249 435.019,513.637L435.019,526.333C435.019,527.721 433.894,528.845 432.507,528.845Z" style="fill:rgb(174,225,244);fill-rule:nonzero;"/>
    </g>
    <g transform="matrix(4.16667,0,0,4.16667,-1620.24,-1673.36)">
        <path d="M453.842,528.845C452.455,528.845 451.331,527.721 451.331,526.333L451.331,492.017C451.331,490.629 452.455,489.505 453.842,489.505C455.229,489.505 456.353,490.629 456.353,492.017L456.353,526.333C456.353,527.721 455.229,528.845 453.842,528.845Z" style="fill:rgb(174,225,244);fill-rule:nonzero;"/>
    </g>
    <g transform="matrix(4.16667,0,0,4.16667,-1620.24,-1673.36)">
        <path d="M475.178,528.845C473.791,528.845 472.667,527.721 472.667,526.333L472.667,513.637C472.667,512.249 473.791,511.126 475.178,511.126C476.565,511.126 477.69,512.249 477.69,513.637L477.69,526.333C477.69,527.721 476.565,528.845 475.178,528.845Z" style="fill:rgb(174,225,244);fill-rule:nonzero;"/>
    </g>
    <g transform="matrix(4.16667,0,0,4.16667,-1620.24,-1673.36)">
        <path d="M496.513,528.845C495.126,528.845 494.002,527.721 494.002,526.333L494.002,500.068C494.002,498.68 495.126,497.557 496.513,497.557C497.9,497.557 499.024,498.68 499.024,500.068L499.024,526.333C499.024,527.721 497.9,528.845 496.513,528.845Z" style="fill:rgb(174,225,244);fill-rule:nonzero;"/>
    </g>
    <g transform="matrix(4.16667,0,0,4.16667,-1620.24,-1673.36)">
        <path d="M496.513,485.616C495.126,485.616 494.002,484.493 494.002,483.105L494.002,471.203C494.002,469.815 495.126,468.692 496.513,468.692C497.9,468.692 499.024,469.815 499.024,471.203L499.024,483.105C499.024,484.493 497.9,485.616 496.513,485.616Z" style="fill:rgb(174,225,244);fill-rule:nonzero;"/>
    </g>
    <g transform="matrix(4.16667,0,0,4.16667,-1620.24,-1673.36)">
        <path d="M475.178,505.689C473.791,505.689 472.667,504.566 472.667,503.178L472.667,452.067C472.667,450.679 473.791,449.556 475.178,449.556C476.565,449.556 477.69,450.679 477.69,452.067L477.69,503.178C477.69,504.566 476.565,505.689 475.178,505.689Z" style="fill:rgb(174,225,244);fill-rule:nonzero;"/>
    </g>
    <g transform="matrix(4.16667,0,0,4.16667,-1620.24,-1673.36)">
        <path d="M453.842,480.015C452.455,480.015 451.331,478.891 451.331,477.503L451.331,462.445C451.331,461.057 452.455,459.934 453.842,459.934C455.229,459.934 456.353,461.057 456.353,462.445L456.353,477.503C456.353,478.891 455.229,480.015 453.842,480.015Z" style="fill:rgb(174,225,244);fill-rule:nonzero;"/>
    </g>
</svg>
