<?xml version="1.0" encoding="UTF-8" standalone="no"?>
<!DOCTYPE svg PUBLIC "-//W3C//DTD SVG 1.1//EN" "http://www.w3.org/Graphics/SVG/1.1/DTD/svg11.dtd">
<svg width="100%" height="100%" viewBox="0 0 520 520" version="1.1" xmlns="http://www.w3.org/2000/svg" xmlns:xlink="http://www.w3.org/1999/xlink" xml:space="preserve" xmlns:serif="http://www.serif.com/" style="fill-rule:evenodd;clip-rule:evenodd;stroke-linejoin:round;stroke-miterlimit:2;">
    <g transform="matrix(4.16667,0,0,4.16667,-539.271,-541.8)">
        <path d="M221.642,191.947C221.642,208.453 208.261,221.835 191.754,221.835C175.248,221.835 161.867,208.453 161.867,191.947C161.867,175.44 175.248,162.059 191.754,162.059C208.261,162.059 221.642,175.44 221.642,191.947Z" style="fill:rgb(250,175,65);fill-rule:nonzero;"/>
    </g>
    <g transform="matrix(4.16667,0,0,4.16667,-539.271,-541.8)">
        <path d="M191.755,153.957C189.674,153.957 187.988,152.271 187.988,150.19L187.988,133.799C187.988,131.718 189.674,130.032 191.755,130.032C193.836,130.032 195.522,131.718 195.522,133.799L195.522,150.19C195.522,152.271 193.836,153.957 191.755,153.957Z" style="fill:rgb(250,175,65);fill-rule:nonzero;"/>
    </g>
    <g transform="matrix(4.16667,0,0,4.16667,-539.271,-541.8)">
        <path d="M191.755,254.691C189.674,254.691 187.988,253.005 187.988,250.924L187.988,234.533C187.988,232.453 189.674,230.767 191.755,230.767C193.836,230.767 195.522,232.453 195.522,234.533L195.522,250.924C195.522,253.005 193.836,254.691 191.755,254.691Z" style="fill:rgb(250,175,65);fill-rule:nonzero;"/>
    </g>
    <g transform="matrix(4.16667,0,0,4.16667,-539.271,-541.8)">
        <path d="M250.317,196.129L233.927,196.129C231.846,196.129 230.16,194.443 230.16,192.362C230.16,190.281 231.846,188.595 233.927,188.595L250.317,188.595C252.398,188.595 254.084,190.281 254.084,192.362C254.084,194.443 252.398,196.129 250.317,196.129Z" style="fill:rgb(250,175,65);fill-rule:nonzero;"/>
    </g>
    <g transform="matrix(4.16667,0,0,4.16667,-539.271,-541.8)">
        <path d="M133.192,196.129L149.582,196.129C151.663,196.129 153.349,194.443 153.349,192.362C153.349,190.281 151.663,188.595 149.582,188.595L133.192,188.595C131.111,188.595 129.425,190.281 129.425,192.362C129.425,194.443 131.111,196.129 133.192,196.129Z" style="fill:rgb(250,175,65);fill-rule:nonzero;"/>
    </g>
    <g transform="matrix(4.16667,0,0,4.16667,-539.271,-541.8)">
        <path d="M161.935,166.309C160.971,166.309 160.007,165.941 159.271,165.205L147.681,153.615C146.21,152.145 146.21,149.758 147.681,148.288C149.153,146.817 151.536,146.817 153.008,148.288L164.598,159.878C166.07,161.348 166.07,163.735 164.598,165.205C163.862,165.941 162.899,166.309 161.935,166.309Z" style="fill:rgb(250,175,65);fill-rule:nonzero;"/>
    </g>
    <g transform="matrix(4.16667,0,0,4.16667,-539.271,-541.8)">
        <path d="M233.164,237.539C232.2,237.539 231.236,237.171 230.501,236.435L218.912,224.845C217.44,223.374 217.44,220.989 218.912,219.519C220.383,218.047 222.767,218.047 224.238,219.519L235.827,231.109C237.299,232.58 237.299,234.965 235.827,236.435C235.092,237.171 234.128,237.539 233.164,237.539Z" style="fill:rgb(250,175,65);fill-rule:nonzero;"/>
    </g>
    <g transform="matrix(4.16667,0,0,4.16667,-539.271,-541.8)">
        <path d="M150.345,237.539C149.381,237.539 148.417,237.171 147.681,236.435C146.21,234.965 146.21,232.579 147.681,231.109L159.271,219.519C160.743,218.047 163.127,218.047 164.598,219.519C166.07,220.989 166.07,223.375 164.598,224.845L153.008,236.435C152.272,237.171 151.308,237.539 150.345,237.539Z" style="fill:rgb(250,175,65);fill-rule:nonzero;"/>
    </g>
    <g transform="matrix(4.16667,0,0,4.16667,-539.271,-541.8)">
        <path d="M221.575,166.309C220.611,166.309 219.647,165.941 218.912,165.205C217.44,163.735 217.44,161.35 218.912,159.878L230.501,148.288C231.97,146.817 234.356,146.817 235.827,148.288C237.299,149.758 237.299,152.143 235.827,153.615L224.238,165.205C223.504,165.941 222.539,166.309 221.575,166.309Z" style="fill:rgb(250,175,65);fill-rule:nonzero;"/>
    </g>
</svg>
