<?xml version="1.0" encoding="UTF-8" standalone="no"?>
<!DOCTYPE svg PUBLIC "-//W3C//DTD SVG 1.1//EN" "http://www.w3.org/Graphics/SVG/1.1/DTD/svg11.dtd">
<svg width="100%" height="100%" viewBox="0 0 542 535" version="1.1" xmlns="http://www.w3.org/2000/svg" xmlns:xlink="http://www.w3.org/1999/xlink" xml:space="preserve" xmlns:serif="http://www.serif.com/" style="fill-rule:evenodd;clip-rule:evenodd;stroke-linejoin:round;stroke-miterlimit:2;">
    <g transform="matrix(4.16667,0,0,4.16667,-3828.78,-715.004)">
        <path d="M1019.64,208.607C1019.63,208.607 1019.61,208.609 1019.6,208.609C1019.61,208.356 1019.64,208.11 1019.64,207.855C1019.64,187.832 1003.41,171.601 983.385,171.601C963.362,171.601 947.13,187.832 947.13,207.855C947.13,207.879 947.134,207.902 947.134,207.925C931.428,208.655 918.908,221.582 918.908,237.469C918.908,253.824 932.166,267.082 948.521,267.082L1019.64,267.082C1035.79,267.082 1048.88,253.992 1048.88,237.844C1048.88,221.697 1035.79,208.607 1019.64,208.607Z" style="fill:rgb(65,192,237);fill-rule:nonzero;"/>
    </g>
    <g transform="matrix(4.16667,0,0,4.16667,-3828.78,-715.004)">
        <path d="M932.386,299.895C931.704,299.895 931.014,299.711 930.393,299.323C928.629,298.22 928.093,295.897 929.195,294.132L958.464,247.302C959.567,245.536 961.891,245 963.654,246.104C965.419,247.206 965.954,249.53 964.852,251.294L935.584,298.125C934.869,299.269 933.641,299.895 932.386,299.895Z" style="fill:rgb(174,225,244);fill-rule:nonzero;"/>
    </g>
    <g transform="matrix(4.16667,0,0,4.16667,-3828.78,-715.004)">
        <path d="M993.061,299.895C992.379,299.895 991.689,299.71 991.068,299.323C989.304,298.22 988.768,295.897 989.87,294.132L1010.61,260.942C1011.72,259.174 1014.04,258.644 1015.8,259.744C1017.57,260.847 1018.11,263.17 1017,264.935L996.259,298.125C995.544,299.269 994.317,299.895 993.061,299.895Z" style="fill:rgb(174,225,244);fill-rule:nonzero;"/>
    </g>
    <g transform="matrix(4.16667,0,0,4.16667,-3828.78,-715.004)">
        <path d="M961.654,299.895C960.98,299.895 960.295,299.714 959.679,299.334C957.909,298.241 957.36,295.92 958.452,294.149L999.429,227.77C1000.52,226.001 1002.84,225.452 1004.61,226.543C1006.38,227.636 1006.93,229.957 1005.84,231.728L964.863,298.107C964.151,299.26 962.917,299.895 961.654,299.895Z" style="fill:rgb(174,225,244);fill-rule:nonzero;"/>
    </g>
</svg>
